<svg width="605" height="522" viewBox="0 0 605 522" fill="none" xmlns="http://www.w3.org/2000/svg">
<path d="M498.073 297.104C480.114 297.104 465.171 277.402 465.171 261.302C465.171 244.646 476.599 231.321 480.952 215.775C490.204 181.907 465.171 151.371 476.599 118.059C489.661 80.3051 529.39 74.1973 552.79 47.5475C558.234 41.4409 560.41 33.6679 564.764 27.5601C572.383 17.0115 578.37 24.2286 580.003 34.7784C582.178 51.9895 570.207 70.8658 562.587 85.3018C554.424 101.402 546.805 117.503 545.717 135.825C545.172 152.481 553.879 163.585 556.057 179.131C557.146 188.014 557.689 197.452 557.689 205.781C557.689 214.664 553.336 220.771 549.525 228.544C541.363 243.535 536.872 253.805 528.709 268.795C525.443 275.458 525.17 288.645 521.362 295.308C517.551 300.859 503.516 304.322 498.073 297.104Z" fill="#B4DDCB"/>
<path d="M572.45 40.884C572.074 63.776 555.541 82.9521 541.221 98.8253C534.121 106.694 527.551 115.04 522.131 124.212C516.203 134.25 511.837 145.453 508.322 156.578C501.155 179.256 500.145 203.153 505.362 226.364C508.269 239.293 510.566 252.095 509.116 265.403C507.718 278.226 501.583 289.985 496.981 301.827C492.764 312.677 490.077 323.551 489.619 335.231C489.16 346.874 490.655 358.555 493.04 369.921C495.531 381.789 499.326 393.351 503.622 404.652C505.582 409.809 507.705 414.901 509.889 419.963C512.365 425.703 515.32 431.531 516.975 437.576C517.329 438.868 519.299 438.319 518.944 437.024C517.617 432.181 515.419 427.465 513.399 422.895C510.655 416.689 508.033 410.433 505.59 404.098C501.054 392.333 497.292 380.251 494.697 367.884C492.033 355.198 490.985 342.184 492.013 329.246C493.029 316.451 498.02 304.479 502.808 292.764C507.473 281.352 511.306 270.428 511.667 257.942C512.03 245.413 508.823 233.47 506.374 221.323C501.323 196.281 504.831 170.881 513.727 147.196C517.665 136.713 522.538 126.717 528.836 117.502C535.055 108.403 542.644 100.605 549.906 92.4094C562.105 78.6414 574.177 60.0652 574.49 40.884C574.513 39.5411 572.472 39.543 572.45 40.884Z" fill="#39B54A"/>
<path d="M544.099 367.409C532.428 367.409 522.717 354.604 522.717 344.141C522.717 333.316 530.144 324.657 532.973 314.554C538.985 292.543 522.717 272.7 530.144 251.05C538.633 226.516 564.451 222.546 579.659 205.227C583.197 201.259 584.61 196.207 587.441 192.238C592.391 185.382 596.281 190.073 597.343 196.929C598.757 208.113 590.977 220.381 586.025 229.763C580.721 240.227 575.77 250.69 575.061 262.597C574.708 273.421 580.366 280.638 581.781 290.739C582.488 296.514 582.843 302.647 582.843 308.06C582.843 313.833 580.248 321.718 577.773 326.77C572.467 336.511 569.314 339.27 564.009 349.012C561.886 353.341 561.709 361.911 559.234 366.241C556.757 369.849 547.636 372.098 544.099 367.409Z" fill="#8EB9A7"/>
<path d="M541.036 408.613C539.975 401.901 539.622 395.083 540.161 388.297C540.821 379.982 544.064 372.201 547.177 364.588C550.208 357.172 552.699 350.072 552.933 341.958C553.169 333.815 551.085 326.054 549.493 318.161C546.211 301.885 548.491 285.379 554.272 269.986C556.832 263.175 559.998 256.678 564.091 250.689C568.133 244.776 573.066 239.708 577.784 234.382C585.712 225.435 593.557 213.363 593.762 200.897C593.776 200.025 592.45 200.025 592.435 200.897C592.19 215.774 581.446 228.236 572.139 238.552C567.525 243.666 563.256 249.089 559.735 255.05C555.881 261.573 553.044 268.854 550.759 276.084C546.1 290.823 545.445 306.352 548.836 321.437C550.725 329.839 552.218 338.158 551.276 346.808C550.368 355.141 546.38 362.783 543.389 370.478C540.648 377.529 538.903 384.595 538.604 392.186C538.384 397.755 538.857 403.335 539.737 408.839C540.169 408.761 540.604 408.687 541.036 408.613Z" fill="#39B54A"/>
<path d="M413.462 254.231L494.811 425.424H505.025C505.025 425.424 459.174 203.62 454.739 200.27C450.306 196.92 404.707 224.459 404.707 224.459L413.462 254.231Z" fill="#21725F"/>
<path d="M390.661 217.482C390.661 217.482 354.73 275.444 349.987 312.659C345.244 349.877 349.987 419.098 349.987 419.098H363.119C363.119 419.098 382.453 302.612 413.096 280.283C443.739 257.953 456.31 229.141 454.585 206.146C452.86 183.15 390.661 217.482 390.661 217.482Z" fill="#2C816F"/>
<path d="M349.987 419.098C349.987 419.098 334.301 413.888 332.659 415.19C331.017 416.492 343.055 429.889 360.019 432.122C376.982 434.355 363.119 419.098 363.119 419.098H349.987Z" fill="#115758"/>
<path d="M494.811 425.424C494.811 425.424 468.364 435.47 473.47 436.402C478.577 437.332 508.308 440.124 507.579 436.402C506.85 432.68 505.025 425.424 505.025 425.424H494.811Z" fill="#115758"/>
<path d="M383.091 115.186C383.091 115.186 376.251 131.05 370.416 130.863C364.579 130.677 350.17 96.9969 350.17 96.9969C350.17 96.9969 350.807 90.8569 349.349 90.578C347.889 90.2991 346.521 95.5084 346.885 96.6251L337.676 87.7868C337.676 87.7868 337.128 96.4398 344.058 99.9746C344.058 99.9746 350.716 127.048 354.82 136.259C358.924 145.471 369.685 159.89 378.623 156.634C387.561 153.379 403.795 137.374 405.983 129.933C408.171 122.49 406.803 119.048 404.98 117.373C403.156 115.698 391.391 113.65 391.026 113.65C390.661 113.65 383.091 115.186 383.091 115.186Z" fill="#FF9D62"/>
<path d="M425.865 55.0369C425.865 55.0369 445.38 64.5265 455.23 82.9491C465.079 101.37 466.722 118.396 466.722 118.396C466.722 118.396 457.693 132.403 436.899 126.516L453.863 141.562L456.598 204.922C456.598 204.922 421.031 228.089 390.661 217.482C390.661 217.482 398.87 152.169 397.775 141.283C396.679 130.398 396.679 126.516 396.679 126.516C396.679 126.516 384.55 121.466 383.091 115.186C383.091 115.186 390.934 92.9958 395.997 83.0879C401.059 73.1788 405.345 67.5971 405.345 67.5971L415.696 61.1776L425.865 55.0369Z" fill="#F8D184"/>
<path d="M488.3 199.614C489.828 205.579 486.326 211.679 480.48 213.238L417.655 229.988C411.808 231.547 405.827 227.973 404.299 222.008L394.799 184.923C393.271 178.958 396.773 172.856 402.62 171.299L465.444 154.548C471.292 152.991 477.272 156.563 478.8 162.528L488.3 199.614Z" fill="#115758"/>
<path d="M436.899 126.516C436.899 126.516 459.135 214.378 456.772 219.56L447.433 222.051C447.433 222.051 447.387 228.555 453.041 227.903C458.696 227.251 464.258 222.879 464.624 219.062C464.99 215.249 466.722 118.396 466.722 118.396L436.899 126.516Z" fill="#FF9D62"/>
<path d="M414.283 41.5452C414.283 41.5452 418.203 53.1765 425.864 55.0368C425.864 55.0368 414.738 68.7125 405.345 67.597C405.345 67.597 405.984 61.4557 403.339 56.7119C400.694 51.9656 407.078 46.9422 407.078 46.9422L405.072 43.2203L408.445 37.7966L414.283 41.5452Z" fill="#FF9D62"/>
<path d="M383.091 29.6372C383.365 30.568 383.275 49.4523 387.379 49.2688C391.481 49.0811 392.213 48.1521 392.213 48.1521C392.213 48.1521 396.591 60.8047 402.973 59.7821C409.356 58.759 415.741 51.1881 416.654 44.7375C417.565 38.2901 417.658 20.0534 417.567 19.6828C417.474 19.3098 407.991 15.7749 407.716 15.7749C407.443 15.7749 398.96 15.5872 398.414 16.3327C397.867 17.077 395.587 17.916 394.857 18.9367C394.127 19.9617 383.091 29.6372 383.091 29.6372Z" fill="#FF9D62"/>
<path d="M379.17 28.9849C379.17 28.9849 382.089 36.8961 389.75 34.2884C397.41 31.6844 400.343 32.6133 400.343 32.6133C400.343 32.6133 400.966 27.2188 404.158 27.4983C407.351 27.7765 405.345 36.6154 405.345 36.6154C405.345 36.6154 407.533 42.2913 411.365 43.592C415.194 44.8953 426.959 35.1244 427.87 25.6354C428.783 16.1459 424.132 3.49269 411.637 0.608582C399.143 -2.27491 385.736 13.7296 373.241 9.44683C360.748 5.16714 348.619 18.9364 360.475 24.1475C372.33 29.3574 376.778 25.3826 379.17 28.9849Z" fill="#0B1A56"/>
<path d="M392.213 48.1524C392.213 48.1524 400.51 50.5705 402.015 47.2904C403.52 44.0109 398.87 35.7074 397.639 33.2658C396.407 30.8229 397.262 28.4507 397.262 28.4507L399.622 29.1485C399.622 29.1485 403.863 39.1964 406.392 43.3137C408.924 47.4304 412.139 54.6878 410.086 58.3162C408.034 61.9439 404.41 63.619 400.032 61.8051C395.654 59.9912 392.758 55.1278 392.213 48.1524Z" fill="#0B1A56"/>
<path d="M347.279 96.1338C347.062 96.4046 346.687 96.4244 346.445 96.1803L331.687 81.2751C331.445 81.0316 331.425 80.6133 331.646 80.3462L338.921 71.537C339.142 71.2712 339.522 71.2514 339.768 71.4937L354.579 86.0679C354.824 86.3084 354.848 86.7273 354.632 86.9981L347.279 96.1338Z" fill="#0A0905"/>
<path d="M445.107 185.105C445.107 187.109 443.515 188.733 441.551 188.733C439.585 188.733 437.992 187.109 437.992 185.105C437.992 183.101 439.585 181.476 441.551 181.476C443.515 181.476 445.107 183.101 445.107 185.105Z" fill="#C68977"/>
<path d="M223.022 303.406C240.982 303.406 255.925 283.704 255.925 267.604C255.925 250.948 244.496 237.623 240.143 222.077C230.891 188.21 255.925 157.673 244.496 124.361C231.435 86.607 191.706 80.4998 168.305 53.85C162.861 47.7428 160.685 39.9698 156.331 33.862C148.713 23.3134 142.725 30.5311 141.092 41.0803C138.917 58.2914 150.889 77.1683 158.509 91.6037C166.672 107.705 174.291 123.806 175.379 142.127C175.925 158.783 167.216 169.887 165.04 185.433C163.95 194.316 163.407 203.755 163.407 212.083C163.407 220.967 167.76 227.073 171.57 234.847C179.733 249.838 184.224 260.107 192.386 275.098C195.652 281.761 195.925 294.948 199.734 301.61C203.544 307.161 217.58 310.624 223.022 303.406Z" fill="#B4DDCB"/>
<path d="M148.645 47.1861C149.022 70.078 165.555 89.2542 179.876 105.127C186.975 112.997 193.545 121.342 198.964 130.515C204.893 140.552 209.259 151.755 212.774 162.88C219.941 185.558 220.951 209.456 215.734 232.667C212.828 245.595 210.53 258.397 211.98 271.706C213.378 284.529 219.513 296.287 224.115 308.129C228.332 318.978 231.018 329.853 231.478 341.533C231.936 353.177 230.441 364.857 228.056 376.223C225.564 388.09 221.77 399.654 217.474 410.954C215.514 416.11 213.389 421.203 211.207 426.265C208.731 432.005 205.776 437.833 204.12 443.879C203.767 445.17 201.797 444.622 202.152 443.326C203.478 438.483 205.677 433.767 207.697 429.196C210.441 422.992 213.063 416.735 215.506 410.4C220.042 398.634 223.803 386.553 226.399 374.186C229.062 361.5 230.111 348.487 229.083 335.547C228.066 322.753 223.077 310.781 218.287 299.066C213.623 287.654 209.79 276.73 209.429 264.243C209.066 251.715 212.273 239.773 214.722 227.626C219.773 202.584 216.265 177.182 207.368 153.499C203.431 143.015 198.558 133.019 192.259 123.804C186.041 114.706 178.452 106.907 171.19 98.7115C158.991 84.9435 146.919 66.3672 146.605 47.1861C146.582 45.8432 148.623 45.845 148.645 47.1861Z" fill="#39B54A"/>
<path d="M176.996 373.711C188.668 373.711 198.379 360.906 198.379 350.444C198.379 339.618 190.952 330.96 188.122 320.856C182.11 298.846 198.379 279.002 190.952 257.352C182.463 232.818 156.645 228.848 141.436 211.529C137.899 207.561 136.486 202.509 133.655 198.54C128.704 191.684 124.814 196.374 123.752 203.231C122.338 214.415 130.119 226.683 135.071 236.065C140.375 246.529 145.327 256.992 146.035 268.899C146.388 279.723 140.73 286.94 139.315 297.042C138.608 302.816 138.253 308.95 138.253 314.362C138.253 320.134 140.847 328.02 143.323 333.072C148.629 342.813 151.782 345.572 157.087 355.314C159.209 359.644 159.387 368.213 161.861 372.543C164.338 376.151 173.46 378.4 176.996 373.711Z" fill="#8EB9A7"/>
<path d="M180.06 414.916C181.12 408.203 181.474 401.386 180.935 394.599C180.274 386.285 177.031 378.504 173.919 370.89C170.887 363.474 168.397 356.374 168.162 348.259C167.927 340.117 170.011 332.357 171.602 324.463C174.884 308.188 172.605 291.681 166.823 276.289C164.264 269.477 161.098 262.98 157.004 256.992C152.962 251.078 148.029 246.01 143.311 240.685C135.383 231.737 127.539 219.664 127.333 207.199C127.319 206.326 128.645 206.327 128.661 207.199C128.906 222.076 139.65 234.538 148.956 244.854C153.571 249.967 157.84 255.39 161.361 261.352C165.214 267.874 168.052 275.156 170.337 282.387C174.995 297.125 175.65 312.654 172.259 327.739C170.371 336.14 168.877 344.46 169.82 353.109C170.728 361.443 174.716 369.085 177.707 376.78C180.447 383.831 182.193 390.897 182.491 398.488C182.711 404.057 182.239 409.638 181.359 415.141C180.927 415.063 180.492 414.988 180.06 414.916Z" fill="#39B54A"/>
<path d="M518.812 453.274L550.246 417.382H443.181L489.343 443.021L518.812 453.274Z" fill="#606060"/>
<path d="M514.884 375.336L544.352 354.82V420.459L515.866 448.917L501.131 408.151L514.884 375.336Z" fill="#D1D4D9"/>
<path d="M253.601 453.274H518.812V375.335H253.601V453.274Z" fill="#7B7579"/>
<path d="M498.183 453.274H505.061V375.335H498.183V453.274Z" fill="#64640E"/>
<path d="M476.247 453.274H483.126V375.335H476.247V453.274Z" fill="#64640E"/>
<path d="M288.686 453.274H295.56V375.335H288.686V453.274Z" fill="#64640E"/>
<path d="M270.427 453.274H277.3V375.335H270.427V453.274Z" fill="#64640E"/>
<path d="M518.812 375.336L550.357 353.818H493.866L447.017 375.69L518.812 375.336Z" fill="#606060"/>
<path d="M483.183 373.11L507.742 353.07L448.807 356.075V361.087L483.183 373.11Z" fill="#5B5751"/>
<path d="M501.848 296.885V354.068L476.31 373.11L473.362 313.915L477.293 299.89L501.848 296.885Z" fill="#D1D4D9"/>
<path d="M483.183 313.916L503.812 294.879H235.657L209.133 313.916L245.476 364.093C245.476 364.093 314.24 367.099 320.133 367.099C326.025 367.099 483.183 313.916 483.183 313.916Z" fill="#5B5751"/>
<path d="M483.183 376.117H209.133V313.916H483.183V376.117Z" fill="#8C8780"/>
<path d="M473.362 376.117H461.577V313.916H473.362V376.117Z" fill="#716C62"/>
<path d="M445.228 376.117H405.765V313.916H445.228V376.117Z" fill="#716C62"/>
<path d="M397.585 376.117H385.347V313.916H397.585V376.117Z" fill="#716C62"/>
<path d="M518.812 307.79L550.246 287.475H443.181L489.343 301.987L518.812 307.79Z" fill="#616370"/>
<path d="M514.884 263.675L544.352 252.063V289.216L515.866 305.323L501.131 282.25L514.884 263.675Z" fill="#D1D4D9"/>
<path d="M253.601 307.79H518.812V263.675H253.601V307.79Z" fill="#4C4D5A"/>
<path d="M498.183 307.79H505.061V263.675H498.183V307.79Z" fill="#64640E"/>
<path d="M476.247 307.79H483.126V263.675H476.247V307.79Z" fill="#64640E"/>
<path d="M288.686 307.79H295.56V263.675H288.686V307.79Z" fill="#64640E"/>
<path d="M270.427 307.79H277.3V263.675H270.427V307.79Z" fill="#64640E"/>
<path d="M518.812 263.675L550.357 251.496H493.866L447.017 263.875L518.812 263.675Z" fill="#616370"/>
<path d="M483.183 262.415L507.742 251.073L448.807 252.773V255.61L483.183 262.415Z" fill="#A5A59D"/>
<path d="M501.848 219.271V251.637L476.31 262.415L473.362 228.91L477.293 220.971L501.848 219.271Z" fill="#D1D4D9"/>
<path d="M483.183 228.909L503.812 218.135H235.657L209.133 228.909L245.476 257.311C245.476 257.311 314.24 259.013 320.133 259.013C326.025 259.013 483.183 228.909 483.183 228.909Z" fill="#A5A59D"/>
<path d="M483.183 264.118H209.133V228.91H483.183V264.118Z" fill="#B5B5A9"/>
<path d="M414.373 264.118H410.267V228.91H414.373V264.118Z" fill="#716C62"/>
<path d="M404.571 264.118H390.818V228.91H404.571V264.118Z" fill="#716C62"/>
<path d="M387.967 264.118H383.702V228.91H387.967V264.118Z" fill="#716C62"/>
<path d="M170.01 277.139C170.01 277.139 161.252 286.509 168.161 304.594C175.071 322.678 182.118 322.415 177.962 333.147C173.806 343.879 171.817 370.059 189.891 374.116C207.963 378.172 221.154 354.757 222.961 349.411C224.769 344.065 228.745 327.656 227.118 322.125C225.492 316.593 210.131 296.498 207.6 294.47C205.07 292.442 188.719 284.145 187.407 283.592C186.095 283.039 170.01 277.139 170.01 277.139Z" fill="#051A92"/>
<path d="M168.339 279.536L167.661 308.505C169.015 309.558 172.884 308.85 172.884 308.85C172.884 308.85 172.202 314.311 175.658 316.179C179.114 318.046 185.688 314.311 185.688 314.311C185.688 314.311 200.463 324.544 201.749 329.937C203.038 335.329 213.271 324.475 214.966 321.641C216.659 318.806 218.963 308.021 218.76 307.883C218.557 307.744 193.618 297.719 193.618 297.719L175.116 285.205L168.339 279.536Z" fill="#FF9D62"/>
<path d="M21.164 505.314C21.164 505.314 18.4462 508.457 15.5007 503.626C12.5552 498.794 0.45649 469.304 0.507516 468.464C0.557934 467.625 2.98654 464.703 7.01457 466.777C11.0408 468.852 21.164 505.314 21.164 505.314Z" fill="#B7F0DF"/>
<path d="M37.9301 496.829L27.3069 500.074C27.3069 500.074 22.7419 491.384 23.2674 491.188C23.7928 490.994 36.7553 485.308 36.7553 485.308L37.9301 496.829Z" fill="#FF9D62"/>
<path d="M29.4453 498.318C29.4453 498.318 26.0672 503.959 21.1639 505.314C16.2599 506.669 1.20291 467.255 1.20291 467.255C1.20291 467.255 5.8548 463.424 9.40719 464.855C12.9602 466.286 19.9763 477.668 22.4845 484.059C24.9914 490.45 29.4453 498.318 29.4453 498.318Z" fill="#01628C"/>
<path d="M22.2775 484.375C21.633 484.33 20.9812 484.486 20.3427 484.56C19.4735 484.659 19.3338 483.283 20.2024 483.184C20.9733 483.096 21.7217 482.956 22.5004 483.012C22.8697 483.038 23.1139 483.463 23.0581 483.808C22.9931 484.205 22.6462 484.402 22.2775 484.375Z" fill="white"/>
<path d="M20.7808 480.669C20.05 480.736 19.2154 480.632 18.5405 480.975C17.7563 481.373 17.2721 480.081 18.0472 479.687C18.8412 479.284 19.7827 479.373 20.6411 479.294C21.5109 479.213 21.6525 480.588 20.7808 480.669Z" fill="white"/>
<path d="M18.7487 477.395C18.0325 477.472 17.3552 477.561 16.7113 477.912C16.3845 478.088 15.9556 477.839 15.8335 477.519C15.6865 477.137 15.8918 476.799 16.218 476.623C16.9579 476.221 17.784 476.108 18.6084 476.02C19.477 475.927 19.6179 477.302 18.7487 477.395Z" fill="white"/>
<path d="M181.577 421.314C181.577 421.314 77.1201 476.663 30.4937 485.427L32.9332 498.149C32.9332 498.149 196.035 478.836 237.6 447.125L181.577 421.314Z" fill="#05236D"/>
<path d="M111.547 494.554C111.547 494.554 114.33 497.636 109.316 500.125C104.3 502.614 74.2956 511.839 73.4822 511.701C72.6694 511.562 70.0714 508.795 72.5115 504.924C74.951 501.052 111.547 494.554 111.547 494.554Z" fill="#B7F0DF"/>
<path d="M105.01 476.663L107.074 487.778C107.074 487.778 98.1283 491.511 97.9935 490.958C97.858 490.405 93.6556 476.663 93.6556 476.663H105.01Z" fill="#FF9D62"/>
<path d="M105.584 485.427C105.584 485.427 110.734 489.437 111.547 494.554C112.36 499.669 72.3758 510.87 72.3758 510.87C72.3758 510.87 69.1235 505.754 70.8845 502.297C72.6467 498.84 84.4708 492.898 90.9609 491.014C97.4515 489.131 105.584 485.427 105.584 485.427Z" fill="#01628C"/>
<path d="M91.2484 491.257C91.1372 491.908 91.2217 492.584 91.2272 493.241C91.235 494.132 89.8798 494.131 89.8719 493.241C89.8646 492.449 89.8063 491.675 89.9418 490.89C90.005 490.518 90.4454 490.314 90.7752 490.407C91.1567 490.515 91.3122 490.886 91.2484 491.257Z" fill="white"/>
<path d="M87.4797 492.392C87.47 493.142 87.2817 493.977 87.5459 494.698C87.8533 495.534 86.5424 495.892 86.2393 495.065C85.9282 494.217 86.1129 493.271 86.1245 492.392C86.136 491.501 87.4919 491.5 87.4797 492.392Z" fill="white"/>
<path d="M84.0773 494.116C84.0779 494.851 84.0949 495.547 84.3695 496.237C84.5092 496.586 84.2219 496.996 83.8963 497.087C83.5087 497.196 83.202 496.952 83.0635 496.605C82.7482 495.811 82.7227 494.96 82.7227 494.116C82.7221 493.224 84.0773 493.224 84.0773 494.116Z" fill="white"/>
<path d="M129.075 380.655C114.888 382.775 100.702 384.895 86.5151 387.015C85.3822 387.184 84.007 386.949 83.453 385.744C76.0438 369.613 68.6347 353.48 61.2256 337.348C59.7507 334.139 64.4239 331.328 65.9066 334.556C73.3158 350.688 80.7249 366.821 88.1352 382.953C87.1147 382.529 86.0948 382.105 85.0743 381.681C99.2601 379.561 113.447 377.441 127.634 375.321C131.052 374.81 132.524 380.14 129.075 380.655Z" fill="#CCC8C2"/>
<path d="M249.167 409.515C249.167 409.515 258.023 448.601 233.805 460.953C209.588 473.306 155.373 451.366 140.011 439.014C124.65 426.661 113.625 422.236 113.625 422.236C113.625 422.236 109.831 451.734 110.915 476.071L90.6734 478.1C90.6734 478.1 77.6617 412.649 83.2642 396.978C88.8674 381.306 106.943 376.397 143.444 389.972C179.946 403.547 194.77 408.04 194.77 408.04L249.167 409.515Z" fill="#01628C"/>
<path d="M112.09 471.186L89.8352 473.712V480.311L114.8 477.546L112.09 471.186Z" fill="#1543B7"/>
<path d="M212.661 312.722C212.481 312.169 229.107 312.169 237.059 326.55C245.01 340.931 255.13 389.604 249.167 409.515C249.167 409.515 209.228 415.046 194.77 408.04C194.77 408.04 184.108 370.613 188.445 345.724C192.781 320.834 212.661 312.722 212.661 312.722Z" fill="#FFFEF2"/>
<path d="M211.035 365.266L187.408 359.043C187.408 359.043 187.179 380.616 178.505 380.477C169.83 380.339 132.015 360.15 132.015 360.15C132.015 360.15 118.053 353.789 113.851 359.598C109.65 365.405 115.342 368.815 115.342 368.815C115.342 368.815 128.219 363.47 130.387 367.341C130.387 367.341 166.084 405.505 187.407 404.537C208.731 403.569 211.035 365.266 211.035 365.266Z" fill="#FF9D62"/>
<path d="M166.223 280.693C166.223 280.693 166.587 299.807 183.208 303.13C199.83 306.453 214.107 313.459 215.372 326.549C216.636 339.639 206.683 355.995 216.629 365.608C226.576 375.222 234.529 379.831 231.998 390.34C229.468 400.849 236.155 430.532 262.902 423.342C289.648 416.151 309.965 395.357 287.667 345.78C273.571 314.437 239.713 316.097 233.026 294.526C226.339 272.955 208.684 257.299 190.794 258.277C172.902 259.256 166.774 272.263 166.223 280.693Z" fill="#051A92"/>
<path d="M86.7691 332.338C86.7691 334.361 88.3764 336 90.3591 336H130.566C132.55 336 134.157 334.361 134.157 332.338V320.809C134.157 318.786 132.55 317.147 130.566 317.147H90.3591C88.3764 317.147 86.7691 318.786 86.7691 320.809V332.338Z" fill="#F0B055"/>
<path d="M98.0773 330.698C98.0773 330.698 87.4875 334.36 91.2568 344.249C91.2568 344.249 84.7941 338.022 88.9229 327.585C93.0518 317.147 98.0773 330.698 98.0773 330.698Z" fill="#F0B055"/>
<path d="M127.548 323.241H93.5718C92.6983 323.241 92.6983 321.859 93.5718 321.859H127.548C128.421 321.859 128.421 323.241 127.548 323.241Z" fill="#2B3990"/>
<path d="M127.548 331.169H93.5718C92.6983 331.169 92.6983 329.786 93.5718 329.786H127.548C128.421 329.786 128.421 331.169 127.548 331.169Z" fill="#2B3990"/>
<path d="M260.129 411.826C260.129 411.826 236.014 387.223 214.886 396.15C193.758 405.077 194.611 429.339 194.611 429.339L198.666 427.066C198.666 427.066 204.428 402.681 219.795 400.504C235.16 398.328 255.506 414.954 255.506 414.954L260.129 411.826Z" fill="#F7D81E"/>
<path d="M279.762 408.777C279.762 408.777 299.93 428.917 300.411 444.428C300.89 459.942 287.606 472.188 287.606 472.188L287.286 466.473C287.286 466.473 298.97 452.594 296.25 442.306C293.528 432.019 278.803 415.69 278.803 415.69L279.762 408.777Z" fill="#F7D81E"/>
<path d="M279.762 408.777L291.501 480.189L186.502 499.347L174.55 424.453L279.762 408.777Z" fill="#F0B055"/>
<path d="M279.762 408.777C279.762 408.777 279.123 430.984 262.05 439.475C244.977 447.966 212.537 452.757 199.52 451.667C186.502 450.579 174.55 424.453 174.55 424.453L279.762 408.777Z" fill="#F7D81E"/>
<path d="M279.762 408.777C279.762 408.777 279.123 429.993 262.05 438.106C244.977 446.217 212.537 450.794 199.52 449.754C186.502 448.713 174.55 423.753 174.55 423.753L279.762 408.777Z" fill="#F7D81E"/>
<path d="M175.483 430.299C175.483 430.299 144.032 508.601 163.239 515.785C182.447 522.97 200.114 496.864 200.114 496.864L205.499 495.882C205.499 495.882 182.767 532.441 160.36 519.052C137.95 505.662 165.533 434.531 174.55 423.753L175.483 430.299Z" fill="#F7D81E"/>
<path d="M255.012 412.3L268.412 484.402L259.431 486.04L246.045 413.577L255.012 412.3Z" fill="#69C5B5"/>
<path d="M205.499 419.842L221.999 492.87L213.749 494.376L196.963 420.562L205.499 419.842Z" fill="#69C5B5"/>
<path d="M253.007 443.422L258.858 442.189L260.211 448.864L254.358 450.097L253.007 443.422ZM250.626 441.624L252.871 452.711L262.591 450.663L260.345 439.576L250.626 441.624Z" fill="#FFFFF0"/>
<path d="M205.879 453.745L211.73 452.513L213.082 459.188L207.231 460.421L205.879 453.745ZM203.498 451.948L205.744 463.035L215.462 460.987L213.218 449.9L203.498 451.948Z" fill="#FFFFF0"/>
<path d="M482.725 467.312C481.904 471.24 480.754 475.633 479.256 480.23C466.187 468.489 453.306 456.532 440.464 444.529C457.742 419.579 492.1 396.868 516.418 404.133C547.699 413.475 566.356 464.417 566.356 464.417L555.262 482.236C555.262 482.236 549.77 465.116 532.23 452.654C514.685 440.191 486.787 447.891 482.725 467.312Z" fill="#1282C6"/>
<path d="M566.356 464.417C566.356 464.417 579.362 441.913 583.611 444.237C587.861 446.56 583.768 455.994 579.669 466.009C575.566 476.027 565.806 488.718 562.435 488.953C559.061 489.182 553.61 487.576 555.073 481.695C556.533 475.814 566.356 464.417 566.356 464.417Z" fill="#45403F"/>
<path d="M474.488 377.155C474.488 377.155 439.069 413.427 449.812 441.767C449.812 441.767 429.069 483.142 398.514 487.677C398.514 487.677 377.032 436.477 398.514 399.45C419.994 362.42 459.348 353.633 459.348 353.633L474.488 377.155Z" fill="#E7EDFD"/>
<path d="M398.514 487.677C398.514 487.677 415.364 512.805 444.44 506.948C473.514 501.09 491.663 474.072 499.996 456.124C508.33 438.178 537.219 437.235 551.479 453.481C565.74 469.728 567.223 487.677 567.223 487.677L582.038 472.94C582.038 472.94 575.371 418.985 547.036 402.549C518.702 386.112 462.988 414.042 449.455 442.451L398.514 487.677Z" fill="#3E91FF"/>
<path d="M582.038 472.94C582.038 472.94 599.771 454.095 603.382 457.356C606.994 460.612 600.882 468.831 594.63 477.617C588.382 486.402 576.02 496.46 572.686 495.896C569.353 495.328 564.409 492.485 567.159 487.105C569.908 481.726 582.038 472.94 582.038 472.94Z" fill="#45403F"/>
<path d="M453.331 385.091C453.331 385.091 422.217 413.621 448.331 442.147C448.331 442.147 414.995 420.231 453.331 385.091Z" fill="#CED7EA"/>
<path d="M506.095 397.461C506.095 398.601 506.998 399.522 508.113 399.522H554.569C555.685 399.522 556.588 398.601 556.588 397.461V396.776C556.588 395.637 555.685 394.715 554.569 394.715H508.113C506.998 394.715 506.095 395.637 506.095 396.776V397.461Z" fill="#45403F"/>
<path d="M579.228 340.366C579.74 339.355 580.959 338.96 581.949 339.482L583.147 340.114C584.138 340.634 584.525 341.877 584.015 342.887L556.423 398.407C555.911 399.418 554.693 399.814 553.702 399.29L552.503 398.661C551.514 398.138 551.125 396.894 551.637 395.885L579.228 340.366Z" fill="#45403F"/>
<path d="M468.907 410.811C468.907 410.811 469.461 413.834 477.055 410.811C484.649 407.788 508.539 375.86 523.724 375.671C538.908 375.482 544.095 382.853 544.095 387.197C544.095 387.197 543.727 388.684 542.547 388.118C541.366 387.551 540.462 384.292 538.519 383.016C536.575 381.742 536.157 383.937 535.949 384.787C535.741 385.639 533.935 388.615 529.908 387.976C525.879 387.338 523.588 387.268 523.588 387.268C523.588 387.268 508.168 388.897 499.651 410.057C491.131 431.215 483.725 444.82 465.02 447.843C446.314 450.864 439.647 427.059 439.647 427.059L468.907 410.811Z" fill="#FF9D62"/>
<path d="M474.488 377.155C474.488 377.155 466.015 400.109 470.182 412.011C470.182 412.011 450.926 420.258 442.592 434.145C442.592 434.145 422.125 404.785 474.488 377.155" fill="#E7EDFD"/>
<path d="M526.712 330.11C526.712 330.11 538.24 359.159 533.796 360.009C529.352 360.86 523.795 360.009 523.795 360.009C523.795 360.009 518.796 376.871 507.823 375.454C496.851 374.036 492.961 363.268 492.961 363.268C492.961 363.268 480.6 363.835 474.488 377.155C474.488 377.155 459.071 371.061 459.348 353.633C459.348 353.633 483.239 350.656 488.378 341.163C493.517 331.671 494.35 328.693 495.323 327.701C496.294 326.71 515.323 317.642 515.323 317.642L526.712 330.11Z" fill="#FF9D62"/>
<path d="M533.055 325.199C533.055 325.199 532.594 336.44 521.112 337.667C509.628 338.896 505.833 344.281 506.295 347.398C506.756 350.516 503.886 342.677 502.128 344.376C500.37 346.077 503.517 352.311 503.517 352.311C503.517 352.311 492.315 355.331 486.388 350.42C480.461 345.51 487.684 342.393 484.905 336.344C482.127 330.298 471.2 326.428 481.85 318.396C492.499 310.367 496.017 312.732 495.182 306.024C494.35 299.314 498.889 292.043 511.389 298.277C523.889 304.511 523.425 311.596 530.74 312.445C538.055 313.295 533.642 322.119 533.055 325.199Z" fill="#0B1A56"/>
<path d="M283.98 312.077C283.98 312.077 280.493 313.107 283.166 317.332C285.839 321.557 304.369 342.551 305.046 342.827C305.722 343.102 308.927 342.225 308.823 338.159C308.718 334.093 283.98 312.077 283.98 312.077Z" fill="#B7F0DF"/>
<path d="M296.955 301.614L290.404 309.049C290.404 309.049 295.487 316.05 295.838 315.696C296.188 315.341 305.535 306.921 305.535 306.921L296.955 301.614Z" fill="#FF9D62"/>
<path d="M292.586 307.968C292.586 307.968 286.893 308.592 283.98 312.077C281.07 315.564 306.255 342.716 306.255 342.716C306.255 342.716 311.012 340.369 311.232 336.934C311.453 333.498 305.186 323.482 301.128 319.025C297.067 314.569 292.586 307.968 292.586 307.968Z" fill="#01628C"/>
<path d="M300.801 319.074C300.593 319.618 300.226 320.089 299.927 320.582C299.522 321.253 300.545 321.886 300.951 321.216C301.312 320.62 301.703 320.063 301.953 319.408C302.073 319.097 301.831 318.738 301.541 318.653C301.204 318.556 300.919 318.764 300.801 319.074Z" fill="white"/>
<path d="M303.139 321.694C302.81 322.264 302.577 322.984 302.054 323.405C301.445 323.893 302.276 324.777 302.876 324.291C303.492 323.798 303.778 322.997 304.163 322.326C304.555 321.648 303.531 321.013 303.139 321.694Z" fill="white"/>
<path d="M304.937 324.586C304.606 325.141 304.279 325.658 303.761 326.052C303.499 326.251 303.534 326.695 303.738 326.915C303.983 327.18 304.324 327.139 304.586 326.94C305.179 326.489 305.581 325.858 305.961 325.22C306.362 324.546 305.338 323.913 304.937 324.586Z" fill="white"/>
<path d="M352.878 316.313C352.878 316.313 350.452 319.068 354.911 321.211C359.371 323.353 385.984 331.163 386.702 331.032C387.417 330.901 389.684 328.426 387.485 325.033C385.287 321.64 352.878 316.313 352.878 316.313Z" fill="#B7F0DF"/>
<path d="M358.46 300.43L356.756 310.276C356.756 310.276 364.7 313.472 364.816 312.981C364.929 312.491 368.492 300.301 368.492 300.301L358.46 300.43Z" fill="#FF9D62"/>
<path d="M358.049 308.18C358.049 308.18 353.541 311.783 352.878 316.313C352.216 320.844 387.67 330.285 387.67 330.285C387.67 330.285 390.489 325.727 388.893 322.693C387.299 319.658 376.786 314.543 371.03 312.952C365.275 311.362 358.049 308.18 358.049 308.18Z" fill="#01628C"/>
<path d="M370.78 313.168C370.884 313.742 370.817 314.341 370.819 314.921C370.822 315.71 372.021 315.694 372.016 314.906C372.015 314.206 372.057 313.522 371.93 312.829C371.869 312.502 371.479 312.327 371.189 312.412C370.853 312.511 370.719 312.842 370.78 313.168Z" fill="white"/>
<path d="M374.121 314.129C374.138 314.792 374.314 315.527 374.087 316.166C373.827 316.909 374.988 317.212 375.247 316.477C375.512 315.724 375.339 314.89 375.32 314.114C375.3 313.327 374.102 313.341 374.121 314.129Z" fill="white"/>
<path d="M377.148 315.613C377.155 316.263 377.147 316.878 376.912 317.492C376.792 317.801 377.052 318.16 377.339 318.236C377.683 318.329 377.952 318.109 378.071 317.801C378.34 317.097 378.353 316.345 378.345 315.599C378.335 314.811 377.138 314.826 377.148 315.613Z" fill="white"/>
<path d="M322.125 181.307V190.319C322.125 190.319 380.933 194.545 385.075 218.204C389.216 241.863 367.681 306.363 367.681 306.363H356.361C356.361 306.363 368.233 250.031 350.286 237.638C332.341 225.245 306.389 222.147 306.389 222.147C306.389 222.147 295.62 222.71 292.031 211.444C288.443 200.178 286.511 194.263 286.511 193.136C286.511 192.009 291.48 181.307 291.48 181.307H322.125Z" fill="#04116B"/>
<path d="M262.214 181.306C262.214 181.306 252.275 206.374 260.144 217.78C268.013 229.189 316.259 233.836 316.259 233.836C316.259 233.836 304.042 293.829 292.033 303.335L302.8 311.996C302.8 311.996 360.364 256.65 354.153 231.723C347.94 206.797 317.708 199.192 317.708 199.192L298.038 185.25L291.48 181.306H262.214Z" fill="#002793"/>
<path d="M352.994 124.913C352.994 124.913 365.28 143.5 368.172 141.967C371.066 140.433 395.359 112.876 395.359 112.876C395.359 112.876 396.699 104.878 397.972 104.375C399.246 103.872 398.449 108.436 398.449 108.436C398.449 108.436 404.693 105.697 404.942 101.977C405.19 98.2573 409.323 105.7 405.401 111.194C401.481 116.689 376.956 160.178 368.041 159.617C359.125 159.057 344.556 142.734 344.556 142.734L350.368 128.545L352.994 124.913Z" fill="#FFC37B"/>
<path d="M312.457 55.8181C312.457 55.8181 307.581 44.053 288.913 49.5157C268.692 55.4314 270.284 78.0104 269.965 86.6175C269.648 95.2252 269.487 101.716 260.572 106.673C251.656 111.63 235.416 133.07 242.422 148.175C249.427 163.281 299.42 162.144 307.381 152.236C315.34 142.328 326.546 128.975 329.511 117.153C332.476 105.33 333.051 101.397 326.903 95.2252C320.755 89.0523 318.468 85.3019 318.496 79.5436C318.525 73.7852 317.853 62.2135 312.457 55.8181Z" fill="#00269A"/>
<path d="M262.406 183.211C262.406 183.211 261.527 153.211 259.936 144.115C258.344 135.019 255.796 112.953 262.642 109.206C269.487 105.458 304.515 103.996 313.112 104.402C321.709 104.808 330.307 104.483 334.446 105.783C338.587 107.082 339.86 134.694 337.313 143.79C334.766 152.885 316.781 174.768 315.508 183.211C314.234 191.653 262.406 183.211 262.406 183.211Z" fill="#E1A4A4"/>
<path d="M312.776 134.158C312.644 134.158 312.537 133.871 312.537 133.736C312.519 128.11 307.531 116.482 307.481 116.366C307.427 116.243 307.482 116.055 307.602 116C307.724 115.945 307.864 115.978 307.917 116.101C308.125 116.578 312.996 128.018 313.015 133.746C313.015 133.881 312.909 134.158 312.777 134.158H312.776Z" fill="#FFFDFD"/>
<path d="M296.06 104.336L307.748 115.978L300.455 120.563L296.06 104.336Z" fill="#FFFDFD"/>
<path d="M307.749 115.978L310.565 104.337L314.465 117.64L307.749 115.978Z" fill="#FFFDFD"/>
<path d="M335.191 106.327C335.191 106.327 348.856 115.375 352.995 124.913C352.995 124.913 353.34 150.119 347.107 145.302C346.778 145.048 338.667 140.622 334.606 136.074C330.546 131.526 335.191 106.327 335.191 106.327Z" fill="#E1A4A4"/>
<path d="M313.895 63.9554C313.895 63.9554 324.832 83.3144 320.219 89.2698C315.606 95.2252 310.618 93.4931 309.609 95.4421C308.601 97.3911 310.565 104.337 310.565 104.337L307.749 115.978L296.06 104.337L295.599 92.7891L287.851 91.0025L284.985 81.9065L289.655 76.9259L303.401 63.4987L313.895 63.9554Z" fill="#FFC37B"/>
<path d="M312.457 55.818C312.457 55.818 317.53 71.5412 308.815 75.2471C300.097 78.9535 294.271 82.3973 294.696 85.1562C294.696 85.1562 291.46 84.0723 290.77 85.7505C290.08 87.4286 291.725 92.4099 295.599 92.7891C295.599 92.7891 290.185 99.7726 283.181 100.206C276.176 100.64 279.147 93.2223 279.253 91.8143C279.36 90.4063 282.225 78.6579 282.225 78.6579C282.225 78.6579 286.278 62.0275 286.311 61.603C286.344 61.1791 296.231 57.7057 296.231 57.7057C296.231 57.7057 302.657 55.0527 302.816 55.0527C302.976 55.0527 312.457 55.818 312.457 55.818Z" fill="#00269A"/>
<path d="M349.309 164.558C349.309 164.558 316.204 164.179 308.815 156.522C308.815 156.522 299.906 172.016 292.02 172.268C292.02 172.268 311.8 192.008 332.986 186.241C332.986 186.241 348.767 179.007 349.309 164.558" fill="#EAF3FE"/>
<g opacity="0.5">
<g opacity="0.5">
<path opacity="0.5" d="M334 170.428C332.85 174.499 330.378 178.178 327.052 180.722C326.747 180.954 327.045 181.483 327.354 181.247C330.808 178.606 333.379 174.825 334.575 170.589C334.682 170.211 334.106 170.051 334 170.428Z" fill="#27AAE1"/>
</g>
<g opacity="0.5">
<path opacity="0.5" d="M323.919 168.127C322.769 172.199 320.297 175.878 316.971 178.421C316.667 178.654 316.964 179.183 317.274 178.947C320.728 176.305 323.299 172.524 324.494 168.288C324.602 167.91 324.026 167.751 323.919 168.127Z" fill="#27AAE1"/>
</g>
<g opacity="0.5">
<path opacity="0.5" d="M314.65 165.189C313.501 169.262 311.028 172.94 307.702 175.484C307.398 175.716 307.695 176.246 308.005 176.009C311.459 173.368 314.03 169.587 315.225 165.351C315.333 164.973 314.756 164.813 314.65 165.189Z" fill="#27AAE1"/>
</g>
</g>
<path d="M266.679 141.718C266.679 141.718 266.839 167.967 277.028 173.765C287.218 179.564 309.03 185.817 312.214 185.573C315.399 185.329 319.857 181.106 320.334 182.406C320.811 183.705 317.23 186.304 317.23 186.304C317.23 186.304 323.756 188.009 325.588 186.628C327.418 185.248 327.657 191.176 318.503 190.77C309.348 190.365 274.269 190.582 261.107 178.44C247.946 166.3 249.538 141.611 249.538 141.611L266.679 141.718Z" fill="#FFC37B"/>
<path d="M261.98 109.648C261.98 109.648 254.781 111.658 249.478 141.692C249.478 141.692 257.202 148.554 267.074 146.28C267.074 146.28 275.169 131.704 261.98 109.648Z" fill="#E1A4A4"/>
</svg>
